<svg width="21" height="20" viewBox="0 0 21 20" fill="none" xmlns="http://www.w3.org/2000/svg">
<path d="M9.50581 0.85958C9.80566 -0.0606967 11.1076 -0.0606959 11.4074 0.859581L13.1585 6.23398C13.2926 6.64561 13.6764 6.92418 14.1093 6.92418H19.7701C20.7395 6.92418 21.1418 8.16521 20.3568 8.73398L15.7819 12.0486C15.4305 12.3033 15.2834 12.7555 15.4178 13.1682L17.1664 18.5349C17.4664 19.4557 16.4131 20.2227 15.6289 19.6544L11.0433 16.3321C10.6933 16.0784 10.2199 16.0784 9.8699 16.3321L5.28435 19.6544C4.50009 20.2227 3.4468 19.4557 3.74683 18.5348L5.4954 13.1682C5.62985 12.7555 5.48277 12.3033 5.13131 12.0486L0.556441 8.73398C-0.228565 8.16521 0.173765 6.92418 1.14316 6.92418H6.80392C7.23684 6.92418 7.6206 6.64561 7.75472 6.23398L9.50581 0.85958Z" fill="#070707"/>
</svg>
